<svg width="65" height="40" viewBox="0 0 65 40" fill="none" xmlns="http://www.w3.org/2000/svg">
<path d="M57.2316 11.9265C58.6133 11.9265 59.9127 12.2694 61.129 12.9551C62.3453 13.6408 63.2944 14.5722 63.9765 15.7484C64.6585 16.9246 65 18.194 65 19.5567C65 20.9194 64.6565 22.2121 63.9696 23.4058C63.2827 24.5995 62.3473 25.5328 61.1623 26.2059C59.9773 26.878 58.672 27.215 57.2443 27.215C55.1445 27.215 53.3509 26.473 51.8655 24.9899C50.3801 23.5068 49.6375 21.7051 49.6375 19.5839C49.6375 17.3121 50.477 15.4191 52.1551 13.904C53.6268 12.586 55.3186 11.9265 57.2306 11.9265H57.2316ZM57.2923 15.3609C56.1504 15.3609 55.1993 15.7552 54.44 16.5439C53.6797 17.3325 53.3 18.3417 53.3 19.5703C53.3 20.7989 53.6757 21.8605 54.4263 22.6443C55.1768 23.4281 56.1279 23.8205 57.2786 23.8205C58.4293 23.8205 59.3873 23.4242 60.1515 22.6307C60.9157 21.8382 61.2973 20.8184 61.2973 19.5703C61.2973 18.3222 60.9216 17.3102 60.1711 16.5303C59.4205 15.7503 58.4606 15.3609 57.2913 15.3609H57.2923Z" fill="#AB13ED"/>
<path d="M35.8721 14.6043C35.0696 13.4376 35.9049 11.8494 37.3209 11.8494C37.8997 11.8494 38.4415 12.1342 38.7695 12.6111L39.2437 13.3002C40.1578 14.6289 42.1206 14.6266 43.0315 13.2957L43.5059 12.6028C43.8286 12.1313 44.3632 11.8494 44.9346 11.8494C46.327 11.8494 47.1498 13.4095 46.3635 14.5586L44.1346 17.8158C43.5983 18.5995 43.5996 19.6323 44.1377 20.4147L46.9733 24.5374C47.7758 25.7041 46.9405 27.2923 45.5245 27.2923C44.9457 27.2923 44.4039 27.0074 44.0758 26.5305L43.0127 24.9851C42.0986 23.6564 40.1357 23.6587 39.2247 24.9896L38.1644 26.5387C37.8416 27.0104 37.3069 27.2923 36.7354 27.2923C35.3427 27.2923 34.5198 25.7319 35.3063 24.5826L38.1215 20.4693C38.6579 19.6856 38.6567 18.6527 38.1185 17.8702L35.8721 14.6043Z" fill="#AB13ED"/>
<path d="M32.6815 19.9311C32.6739 20.3174 32.3586 20.6265 31.9722 20.6265H23.5666C22.1489 20.6265 21.0405 22.0263 22.0926 22.9765C22.1363 23.016 22.1812 23.0547 22.2271 23.0926C22.9678 23.7025 23.9121 24.0075 25.0609 24.0075C26.0038 24.0075 26.8562 23.7825 27.6175 23.3329C28.2626 22.9519 29.0502 22.7866 29.7293 23.1031C30.7543 23.5808 31.105 24.8984 30.2247 25.6084C29.8196 25.9351 29.3867 26.2099 28.926 26.4327C27.8486 26.9543 26.5697 27.2146 25.0892 27.2146C22.7917 27.2146 20.9198 26.4949 19.4746 25.0564C18.0293 23.618 17.3072 21.8154 17.3072 19.6504C17.3072 17.4855 18.0274 15.5906 19.4677 14.125C20.9081 12.6593 22.7144 11.927 24.8867 11.927C27.193 11.927 29.0688 12.6603 30.5141 14.125C31.9593 15.5906 32.6815 17.5263 32.6815 19.9311ZM26.5009 17.7539C27.7432 17.7537 28.5695 16.4944 27.5561 15.7761C26.8408 15.2681 26.012 15.0146 25.0677 15.0146C24.0432 15.0146 23.144 15.3002 22.371 15.8703C21.4893 16.5178 22.2691 17.7544 23.363 17.7542L26.5009 17.7539Z" fill="#AB13ED"/>
<path d="M12.8184 0C10.7685 0 9.1001 1.65599 9.1001 3.69077C9.1001 4.57976 9.41869 5.39683 9.94856 6.0349C10.4736 6.66714 10.9593 7.39276 10.9593 8.21458V14.6144C10.9593 16.6567 8.49343 17.6834 7.04399 16.2445L5.83803 15.0474C4.38859 13.6085 1.92276 14.6352 1.92276 16.6776V30.8615C1.92276 31.6991 1.41902 32.4354 0.876379 33.0734C0.329731 33.7162 0 34.546 0 35.4508C0 37.4856 1.66835 39.1416 3.71832 39.1416C5.76829 39.1416 7.43664 37.4856 7.43664 35.4508C7.43664 34.5531 7.11197 33.7293 6.57317 33.0888C6.03864 32.4534 5.54323 31.722 5.54323 30.8916V25.3534C5.54323 23.3111 8.00893 22.2844 9.45842 23.7231L10.6645 24.9203C12.114 26.359 14.5797 25.3323 14.5797 23.29V8.31516C14.5797 7.46877 15.0937 6.72657 15.6458 6.0851C16.2011 5.43997 16.5367 4.60342 16.5367 3.69077C16.5367 1.65599 14.8684 0 12.8184 0ZM5.08823 35.4508C5.08823 36.2006 4.47373 36.8106 3.71832 36.8106C2.96291 36.8106 2.34841 36.2006 2.34841 35.4508C2.34841 34.701 2.96291 34.0911 3.71832 34.0911C4.47373 34.0911 5.08823 34.701 5.08823 35.4508Z" fill="#AB13ED"/>
</svg>
